<?xml version="1.0" standalone="no"?>
<!DOCTYPE svg PUBLIC "-//W3C//DTD SVG 20010904//EN"
 "http://www.w3.org/TR/2001/REC-SVG-20010904/DTD/svg10.dtd">
<svg version="1.0" xmlns="http://www.w3.org/2000/svg"
 width="600.000000pt" height="600.000000pt" viewBox="0 0 600.000000 600.000000"
 preserveAspectRatio="xMidYMid meet" 
>

<g transform="translate(0.000000,600.000000) scale(0.100000,-0.100000)"
fill="#ffffff" stroke="none">
<path d="M2745 5990 c-3 -5 -30 -10 -58 -11 -122 -1 -537 -86 -632 -129 -11
-5 -38 -14 -60 -20 -22 -7 -53 -18 -70 -26 -16 -7 -59 -25 -95 -39 -169 -69
-380 -187 -540 -300 -58 -41 -122 -86 -142 -100 -100 -67 -446 -413 -513 -513
-14 -20 -59 -84 -100 -142 -113 -160 -231 -371 -300 -540 -14 -36 -32 -78 -39
-95 -8 -16 -19 -48 -26 -70 -6 -22 -15 -49 -20 -60 -43 -94 -129 -518 -130
-637 0 -26 -4 -50 -10 -53 -14 -8 -14 -502 0 -510 5 -3 10 -27 11 -53 1 -64
22 -204 52 -342 40 -181 61 -253 142 -470 50 -136 202 -418 310 -577 33 -48
93 -128 134 -177 40 -49 80 -96 87 -105 41 -51 206 -219 246 -250 25 -20 94
-75 151 -124 58 -48 108 -87 111 -87 3 0 43 -26 88 -59 78 -55 136 -89 288
-169 88 -46 333 -151 395 -169 28 -7 59 -18 70 -23 11 -6 52 -17 90 -25 39 -9
81 -20 95 -25 35 -14 232 -49 375 -67 211 -27 695 -17 810 17 17 5 77 16 135
25 58 10 110 21 115 25 6 4 28 10 50 14 47 8 227 62 270 80 17 8 62 26 100 41
121 48 359 170 443 226 24 16 45 29 48 29 10 0 241 173 321 241 248 210 495
507 656 789 38 68 144 286 171 355 16 39 33 79 38 89 13 25 77 243 109 369 13
51 38 205 50 302 5 44 13 103 17 131 20 126 1 578 -28 714 -6 25 -19 90 -29
145 -24 121 -58 263 -70 290 -5 11 -17 45 -27 75 -37 119 -151 370 -234 515
-13 22 -29 51 -36 65 -26 49 -130 194 -209 292 -44 54 -99 122 -122 151 -35
44 -202 210 -254 251 -9 7 -56 47 -105 87 -190 158 -449 314 -694 418 -41 18
-84 36 -95 42 -32 14 -226 76 -265 83 -19 4 -44 11 -55 16 -54 24 -361 78
-452 79 -28 1 -55 6 -58 11 -4 6 -100 10 -255 10 -155 0 -251 -4 -255 -10z
m1274 -1025 c482 -79 866 -467 946 -955 22 -141 22 -1879 0 -2020 -80 -491
-464 -875 -955 -955 -141 -22 -1879 -22 -2020 0 -489 80 -872 459 -954 944
-24 141 -24 1910 0 2046 42 241 145 437 323 616 173 173 375 281 608 323 121
22 1918 22 2052 1z"/>
<path d="M2089 4670 c-114 -13 -194 -36 -294 -85 -241 -118 -405 -338 -457
-610 -19 -100 -19 -1848 0 -1948 55 -292 249 -530 519 -638 149 -60 147 -60
1184 -57 l944 3 73 23 c236 72 425 232 528 447 84 174 78 93 82 1159 3 1043 4
1029 -57 1181 -105 260 -321 442 -611 513 -57 14 -180 16 -950 18 -487 1 -919
-2 -961 -6z m2146 -319 c119 -54 167 -194 108 -312 -100 -197 -393 -150 -428
69 -15 95 42 204 129 243 53 24 139 24 191 0z m-1120 -291 c250 -26 482 -143
660 -331 85 -90 133 -161 190 -282 107 -225 129 -475 65 -722 -26 -101 -114
-280 -179 -366 -224 -295 -592 -456 -953 -419 -130 13 -229 40 -345 95 -120
57 -192 105 -282 190 -371 350 -445 900 -180 1335 70 115 234 279 349 349 207
126 433 177 675 151z"/>
<path d="M2845 3745 c-148 -32 -271 -100 -381 -209 -134 -135 -210 -300 -221
-483 -34 -553 500 -952 1019 -763 109 40 191 92 273 175 381 382 254 1029
-242 1235 -137 57 -313 75 -448 45z"/>
</g>
</svg>
